<?xml version="1.0"?>
<svg width="700" height="700" xmlns="http://www.w3.org/2000/svg" xmlns:svg="http://www.w3.org/2000/svg" version="1.1">

 <g class="layer">
  <title>Layer 1</title>
  <g id="svg_23">
   <g id="svg_74">
    <path d="m142.089568,454.1788c0,8.234006 4.847512,15.695821 12.374351,19.045397l187.569562,83.36425c0.074432,0.037228 0.158178,0.05583 0.241899,0.093035c0.223297,0.093058 0.446594,0.167491 0.679204,0.260525c0.567544,0.223297 1.144401,0.427992 1.730547,0.595459c0.279127,0.083745 0.548942,0.148865 0.837358,0.223297c0.576857,0.139576 1.153714,0.251212 1.730547,0.344247c0.251212,0.037228 0.502424,0.093035 0.762926,0.12095c0.818756,0.093058 1.656114,0.158178 2.484255,0.158178c0.939706,0 1.870122,-0.074432 2.800562,-0.204695c0.297729,-0.037204 0.595459,-0.111637 0.893188,-0.167467c0.623374,-0.11166 1.246748,-0.23261 1.870122,-0.40939c0.35356,-0.093035 0.697806,-0.223297 1.042053,-0.334934c0.548942,-0.186093 1.08857,-0.381475 1.628199,-0.614061c0.362849,-0.158178 0.716409,-0.334958 1.069968,-0.511714c0.269814,-0.139552 0.548942,-0.241899 0.818756,-0.390764l187.569562,-104.205312c6.615072,-3.665883 10.718261,-10.643947 10.718261,-18.207943l0,-145.887437c0,-0.11166 -0.018602,-0.213984 -0.018602,-0.325645c-0.009313,-0.632663 -0.05583,-1.256037 -0.12095,-1.879411c-0.027915,-0.223297 -0.027915,-0.446594 -0.065143,-0.660578c-0.111637,-0.828069 -0.279127,-1.656114 -0.493111,-2.465676c-0.037204,-0.158178 -0.102347,-0.297729 -0.148865,-0.455907c-0.186069,-0.651289 -0.400077,-1.293265 -0.651289,-1.916639c-0.111637,-0.269814 -0.232586,-0.53034 -0.35356,-0.790841c-0.223297,-0.502424 -0.455907,-0.995536 -0.725722,-1.479334c-0.158154,-0.279127 -0.316332,-0.558255 -0.483798,-0.828069c-0.269814,-0.446594 -0.558255,-0.874586 -0.855984,-1.302578c-0.195382,-0.269814 -0.390764,-0.539629 -0.595459,-0.800154c-0.111637,-0.139552 -0.204695,-0.297729 -0.325645,-0.437281l-104.205312,-125.046375c-5.963878,-7.154796 -15.956394,-9.490186 -24.468598,-5.703306l-187.569562,83.36425c-0.074432,0.037228 -0.139552,0.074432 -0.213984,0.11166c-0.437281,0.204671 -0.865273,0.427968 -1.293265,0.660578c-0.223297,0.12095 -0.455907,0.232586 -0.679204,0.362849c-0.511714,0.297729 -0.995536,0.632663 -1.479334,0.986223c-0.12095,0.083722 -0.241899,0.158154 -0.362849,0.241899c-0.009313,0 -0.009313,0.009289 -0.018602,0.009289l-83.36425,62.523187c-0.158178,0.12095 -0.288416,0.251212 -0.437281,0.372162c-0.381475,0.307042 -0.753637,0.623374 -1.116485,0.958308c-0.297729,0.279127 -0.595459,0.548942 -0.874586,0.837358c-0.334934,0.344247 -0.641976,0.697806 -0.949019,1.060655c-0.260525,0.316332 -0.53034,0.623374 -0.772239,0.949019c-0.279127,0.372162 -0.539629,0.762926 -0.790841,1.153714c-0.223297,0.344247 -0.446594,0.688493 -0.651289,1.042053c-0.23261,0.400077 -0.427992,0.818756 -0.632687,1.237435c-0.17678,0.372162 -0.362849,0.735011 -0.521027,1.107173c-0.17678,0.437281 -0.325645,0.883875 -0.474509,1.32118c-0.130263,0.381475 -0.269814,0.762926 -0.372162,1.163003c-0.120973,0.455907 -0.214008,0.921104 -0.297729,1.3863c-0.083745,0.400077 -0.17678,0.790841 -0.23261,1.200231c-0.065119,0.474509 -0.093035,0.958308 -0.12095,1.44213c-0.027915,0.40939 -0.074432,0.809443 -0.074432,1.218833c0,0.093035 -0.009313,0.158178 -0.009313,0.223297l-0.001072,145.88739zm41.682125,-113.816019l29.177487,12.96981l116.70995,51.869236l0,100.27052l-145.887437,-64.840714l0,-100.268852zm57.964354,-65.119388l47.377094,66.329361l-85.281628,-37.904534l37.904534,-28.424827zm275.483118,145.832655l-145.887437,81.046724l0,-98.203086l145.887437,-81.046724l0,98.203086zm-89.290257,-233.234116l78.00512,93.608525l-149.30299,82.945047l-78.545796,-109.964591l149.843666,-66.588981z" id="svg_26"/>
    <path d="m85.354241,293.881257c10.653237,-50.949848 35.839482,-97.738628 73.577287,-135.485961c105.639177,-105.639177 277.531497,-105.639177 383.165911,0l29.475217,-29.475217c-121.892824,-121.892824 -320.213993,-121.892824 -442.116345,0c-47.924916,47.924916 -78.302849,108.514053 -88.089812,174.209846l-9.573789,-9.573789l-29.475217,29.475217l41.682125,41.682125c4.065794,4.065794 9.406346,6.103454 14.737608,6.103454s10.671815,-2.037589 14.737608,-6.103454l41.682125,-41.682125l-29.475217,-29.475217l-0.327502,0.325121z" id="svg_27"/>
    <path d="m627.531504,335.229925l-41.682125,41.682125l29.475217,29.475217l0.325645,-0.325645c-10.653237,50.949848 -35.839482,97.738628 -73.577287,135.485961c-105.639177,105.639177 -277.531497,105.639177 -383.165911,0l-29.475217,29.475217c60.941648,60.941648 141.002292,91.412473 221.05579,91.412473s160.114142,-30.470824 221.05579,-91.412473c47.924916,-47.924916 78.302849,-108.514053 88.089812,-174.209846l9.573789,9.573789l29.475217,-29.475217l-41.682125,-41.682125c-8.141114,-8.141114 -21.334102,-8.141114 -29.475217,0l0.006622,0.000524z" id="svg_28"/>
   </g>
  </g>
 </g>
</svg>